# Blender 3.6.1
# www.blender.org
mtllib rocks1.mtl
o Cube
v 0.120968 -0.023848 0.048430
v 0.128836 0.041206 0.037091
v 0.131636 -0.013547 -0.009470
v 0.136763 0.048198 -0.001947
v 0.178137 -0.019993 0.048764
v 0.167283 0.044783 0.033429
v 0.177657 -0.013576 -0.019791
v 0.163885 0.051559 -0.006922
v 0.122488 0.009966 0.052700
v 0.127838 0.015205 -0.019366
v 0.182064 0.015807 -0.032459
v 0.182692 0.014373 0.048991
v 0.117583 -0.029459 0.017166
v 0.124102 0.043102 0.013967
v 0.190258 -0.031463 0.017214
v 0.177840 0.045306 0.010217
v 0.192315 0.010763 0.013191
v 0.111190 0.005650 0.014163
v 0.159557 -0.021081 -0.020355
v 0.152475 0.052806 -0.011098
v 0.142279 -0.024708 0.048061
v 0.147807 0.041149 0.044523
v 0.145152 0.000856 0.066386
v 0.157224 0.014960 -0.034047
v 0.156568 0.050227 0.011837
v 0.150549 -0.035427 0.020202
v -0.178054 -0.024176 0.029687
v -0.170187 0.040877 0.018348
v -0.167387 -0.013875 -0.028213
v -0.158375 0.039533 -0.031918
v -0.120885 -0.020322 0.030021
v -0.131739 0.044454 0.014686
v -0.121365 -0.013905 -0.038534
v -0.126031 0.036257 -0.027583
v -0.176535 0.009637 0.033957
v -0.171184 0.014877 -0.038109
v -0.116959 0.015478 -0.051202
v -0.116330 0.014044 0.030248
v -0.181440 -0.029787 -0.001577
v -0.174921 0.042773 -0.004776
v -0.108764 -0.031792 -0.001529
v -0.106708 0.010434 -0.005552
v -0.187833 0.005321 -0.004580
v -0.139466 -0.021410 -0.039099
v -0.156744 -0.025037 0.029318
v -0.151215 0.040820 0.025780
v -0.153871 0.000528 0.047643
v -0.141799 0.014632 -0.052790
v -0.148474 -0.035756 0.001459
v -0.341454 -0.014768 0.268552
v -0.333435 0.015687 0.209980
v -0.379637 0.030876 0.262974
v -0.359718 0.046145 0.205831
v -0.383147 -0.039565 0.238055
v -0.363405 0.002512 0.189181
v -0.420292 0.018228 0.242685
v -0.381976 0.039095 0.190778
v -0.329488 -0.005941 0.237847
v -0.373425 0.051572 0.241246
v -0.421665 0.037663 0.216923
v -0.375627 -0.028656 0.206020
v -0.358696 0.009759 0.279578
v -0.342602 0.037157 0.213943
v -0.414089 -0.024106 0.246860
v -0.384583 0.016572 0.187100
v -0.404660 -0.005634 0.209802
v -0.344551 0.028529 0.252558
v -0.409335 0.024041 0.257864
v -0.375389 0.048120 0.195712
v -0.358004 -0.024495 0.259250
v -0.343471 0.001061 0.199955
v -0.341553 -0.030743 0.233022
v -0.404120 0.049914 0.229665
v -0.366063 0.026831 0.192674
v -0.383678 -0.009964 0.268692
v -0.133941 -0.063571 0.377511
v -0.174390 -0.012632 0.363669
v -0.111873 -0.030479 0.332899
v -0.159179 0.010218 0.333968
v -0.108470 -0.021629 0.407097
v -0.156357 0.017489 0.380162
v -0.084513 0.004767 0.348186
v -0.146079 0.032793 0.343476
v -0.160554 -0.042226 0.377552
v -0.131310 -0.011391 0.318870
v -0.099160 0.030855 0.336012
v -0.132273 0.003506 0.405237
v -0.118142 -0.059205 0.350094
v -0.168387 -0.007067 0.341450
v -0.080383 -0.010193 0.388276
v -0.141650 0.032788 0.366015
v -0.109574 0.019658 0.380517
v -0.146600 -0.040108 0.339707
v -0.087633 -0.012394 0.339241
v -0.150945 0.027072 0.333845
v -0.122501 -0.049249 0.388419
v -0.168029 -0.001986 0.379836
v -0.148157 -0.036895 0.402085
v -0.110242 0.013638 0.321834
v -0.156670 0.020686 0.355659
v -0.098467 -0.041214 0.370608
v 0.322649 -0.034055 0.267485
v 0.323128 -0.004961 0.207688
v 0.291117 0.016712 0.268344
v 0.301222 0.029035 0.208002
v 0.272575 -0.052387 0.246513
v 0.288028 -0.013542 0.193588
v 0.245839 0.010220 0.256843
v 0.275629 0.025367 0.197842
v 0.329393 -0.027004 0.234795
v 0.295789 0.036326 0.245269
v 0.242173 0.029710 0.231349
v 0.275045 -0.042621 0.213342
v 0.311678 -0.007291 0.281041
v 0.318132 0.017612 0.212807
v 0.246575 -0.032576 0.260845
v 0.269117 0.003480 0.195359
v 0.250984 -0.015596 0.222171
v 0.322705 0.009266 0.251263
v 0.260327 0.014324 0.269394
v 0.284300 0.033314 0.201132
v 0.303349 -0.041224 0.261905
v 0.309290 -0.017931 0.200242
v 0.313157 -0.049754 0.233119
v 0.263489 0.039221 0.240035
v 0.289660 0.010894 0.196883
v 0.282447 -0.023106 0.275843
v 0.259526 -0.035746 -0.326649
v 0.240229 0.026602 -0.339407
v 0.297243 -0.009231 -0.364684
v 0.266090 0.044849 -0.364584
v 0.292781 -0.006791 -0.290057
v 0.264542 0.047787 -0.317855
v 0.332114 0.013708 -0.342724
v 0.284330 0.061048 -0.351296
v 0.241576 -0.006742 -0.327312
v 0.287264 0.016135 -0.378682
v 0.328627 0.043922 -0.353598
v 0.278960 0.024950 -0.291874
v 0.279605 -0.035210 -0.351487
v 0.250801 0.031229 -0.360084
v 0.325428 -0.004293 -0.304262
v 0.285273 0.058117 -0.328533
v 0.308939 0.034067 -0.312008
v 0.260678 -0.007032 -0.362900
v 0.324887 -0.000797 -0.353752
v 0.279285 0.057923 -0.361971
v 0.273332 -0.026832 -0.313049
v 0.247345 0.033435 -0.321579
v 0.251421 -0.007467 -0.301111
v 0.314679 0.032376 -0.370698
v 0.268763 0.052458 -0.341751
v 0.300941 -0.026232 -0.327078
v 0.025629 -0.008780 -0.247874
v 0.020019 0.020033 -0.307547
v 0.000616 0.045290 -0.243054
v 0.002454 0.056331 -0.304454
v -0.028877 -0.021218 -0.260432
v -0.017606 0.015554 -0.315836
v -0.046347 0.044063 -0.247229
v -0.024667 0.055637 -0.310426
v 0.027912 -0.002571 -0.281342
v 0.003809 0.064221 -0.266938
v -0.051728 0.063832 -0.272198
v -0.030552 -0.011820 -0.293759
v 0.020046 0.019079 -0.233275
v 0.018495 0.043035 -0.302133
v -0.049874 0.001470 -0.242593
v -0.033940 0.034647 -0.311455
v -0.049689 0.017807 -0.281791
v 0.028072 0.034237 -0.264713
v -0.029696 0.046473 -0.237170
v -0.014739 0.062532 -0.308679
v 0.005002 -0.013675 -0.250241
v 0.003797 0.008744 -0.312499
v 0.009130 -0.023295 -0.280040
v -0.028369 0.070823 -0.267122
v -0.012703 0.039641 -0.313292
v -0.011248 0.006743 -0.233553
v -0.325654 -0.024434 -0.326735
v -0.352116 0.034020 -0.344209
v -0.285276 0.009613 -0.354714
v -0.324658 0.057398 -0.362517
v -0.307803 0.008522 -0.283394
v -0.337825 0.058319 -0.317568
v -0.261316 0.037464 -0.325138
v -0.313304 0.076033 -0.345328
v -0.347790 0.001003 -0.331917
v -0.295970 0.033345 -0.370883
v -0.267421 0.066982 -0.336741
v -0.326208 0.037414 -0.288716
v -0.300646 -0.019504 -0.345989
v -0.337906 0.041168 -0.361750
v -0.273688 0.017185 -0.289307
v -0.317321 0.072485 -0.322992
v -0.294401 0.052342 -0.301072
v -0.320999 0.005341 -0.361832
v -0.263000 0.022332 -0.337485
v -0.315012 0.072467 -0.356884
v -0.317310 -0.013751 -0.310265
v -0.350799 0.041336 -0.325238
v -0.344523 0.001052 -0.304109
v -0.274596 0.053813 -0.356624
v -0.328916 0.064520 -0.339768
v -0.287709 -0.007839 -0.317212
v -0.468852 0.003005 -0.043049
v -0.441057 0.054793 -0.074161
v -0.499484 0.017023 -0.092421
v -0.461315 0.063894 -0.107961
v -0.437756 -0.024116 -0.082808
v -0.422420 0.038115 -0.103807
v -0.483499 -0.005359 -0.130735
v -0.449454 0.053283 -0.130729
v -0.448496 0.029326 -0.050581
v -0.494352 0.044701 -0.104530
v -0.475867 0.019034 -0.150483
v -0.418460 0.001834 -0.095301
v -0.495498 0.006178 -0.060380
v -0.458935 0.063316 -0.087140
v -0.459615 -0.033933 -0.109260
v -0.433284 0.037432 -0.126873
v -0.440752 0.000653 -0.125115
v -0.483678 0.039155 -0.067815
v -0.496747 -0.001878 -0.116712
v -0.457589 0.061153 -0.126140
v -0.458735 -0.008908 -0.057566
v -0.426198 0.043279 -0.082021
v -0.431760 0.007173 -0.054201
v -0.489996 0.031780 -0.134416
v -0.440505 0.052440 -0.112663
v -0.479560 -0.016778 -0.079103
vn -0.8457 0.3587 -0.3950
vn 0.1347 0.5740 -0.8077
vn 0.8452 0.4644 0.2647
vn -0.3142 0.4713 0.8241
vn 0.1168 -0.9166 0.3824
vn -0.1521 0.9718 0.1801
vn -0.3395 -0.3125 0.8872
vn 0.9452 -0.0657 0.3199
vn 0.1189 -0.3743 -0.9197
vn -0.8215 -0.2359 -0.5191
vn -0.9738 -0.0728 0.2152
vn 0.9402 -0.1555 -0.3031
vn -0.2014 0.9684 0.1469
vn 0.1640 -0.9082 -0.3850
vn 0.8480 0.4716 -0.2420
vn -0.9227 0.3111 0.2277
vn -0.2484 -0.8485 -0.4673
vn 0.1733 0.9753 0.1369
vn -0.4211 -0.3452 -0.8388
vn 0.2843 -0.3155 0.9053
vn 0.0931 0.9754 0.1997
vn -0.1330 -0.9581 0.2536
vn 0.2682 0.4880 0.8306
vn -0.4489 0.4623 -0.7648
vn -0.8268 0.3823 -0.4126
vn 0.0163 0.7538 -0.6569
vn 0.8244 0.5607 0.0771
vn 0.0943 0.9955 -0.0095
vn 0.1076 0.9928 -0.0529
vn 0.8445 0.5190 -0.1323
vn -0.2988 0.9285 -0.2204
vn -0.0989 0.5997 -0.7941
vn 0.5228 0.8397 0.1469
vn -0.3865 0.8079 -0.4449
vn -0.3383 -0.4194 -0.8424
vn 0.8605 -0.3391 -0.3802
vn -0.1562 -0.7117 0.6849
vn 0.5246 0.2966 -0.7980
vn 0.6691 -0.6785 0.3032
vn -0.5488 -0.7123 -0.4375
vn -0.7378 0.5419 0.4025
vn 0.2457 0.7007 0.6699
vn 0.8353 0.2421 0.4936
vn -0.9325 -0.2436 -0.2666
vn 0.5416 0.3445 -0.7668
vn -0.6317 -0.1129 0.7669
vn -0.6303 -0.0105 -0.7763
vn 0.9249 0.3558 0.1341
vn -0.3494 0.1637 0.9226
vn 0.2554 0.1846 -0.9490
vn -0.2749 0.7337 0.6214
vn 0.2083 -0.9780 0.0075
vn 0.3521 0.1707 -0.9202
vn -0.0552 -0.5104 0.8582
vn 0.4304 -0.6029 -0.6718
vn 0.0430 0.9961 -0.0774
vn -0.5258 -0.2250 -0.8203
vn -0.0245 0.7281 -0.6850
vn -0.0415 0.7959 0.6041
vn -0.8622 -0.1869 0.4708
vn 0.5892 -0.6335 0.5016
vn -0.8869 0.4590 -0.0525
vn -0.3091 -0.7282 0.6117
vn 0.3858 0.5067 0.7710
vn 0.7319 0.1454 -0.6657
vn -0.0116 -0.5490 -0.8358
vn -0.5221 -0.7919 -0.3167
vn 0.7151 0.6511 0.2544
vn -0.8949 0.4336 -0.1058
vn 0.9316 -0.3424 -0.1224
vn 0.1692 0.9695 0.1771
vn -0.7921 -0.5142 -0.3290
vn 0.7155 -0.5624 -0.4145
vn -0.7088 0.7008 0.0803
vn 0.4062 -0.2364 -0.8827
vn -0.0033 -0.3043 0.9526
vn -0.7755 0.6246 0.0914
vn 0.5505 -0.7907 0.2680
vn -0.5870 0.2250 0.7777
vn -0.2494 0.2382 -0.9387
vn 0.6572 0.7535 0.0180
vn -0.3467 0.8570 -0.3812
vn -0.5565 -0.3631 -0.7473
vn 0.7092 -0.4608 -0.5336
vn -0.1175 -0.6827 0.7211
vn 0.3920 0.2184 -0.8937
vn 0.6111 -0.7701 0.1830
vn -0.7221 -0.6229 -0.3010
vn -0.5565 0.6434 0.5257
vn 0.4730 0.6553 0.5890
vn 0.9430 0.1156 0.3120
vn -0.9922 -0.1034 -0.0703
vn 0.4216 0.2631 -0.8678
vn -0.4755 -0.0209 0.8795
vn -0.7673 0.0841 -0.6357
vn 0.9745 0.2159 -0.0610
vn -0.1309 0.2109 0.9687
vn 0.0848 0.1475 -0.9854
vn -0.0365 0.7645 0.6436
vn 0.0623 -0.9980 -0.0076
vn 0.1823 0.1195 -0.9760
vn 0.0441 -0.4989 0.8655
vn 0.1961 -0.6578 -0.7272
vn 0.1700 0.9792 -0.1111
vn -0.4485 0.0178 -0.8936
vn 0.3109 0.7360 -0.6013
vn 0.1343 0.7232 0.6774
vn -0.9337 0.0844 0.3480
vn 0.2738 -0.8254 0.4938
vn -0.6725 0.7329 -0.1024
vn -0.6125 -0.6192 0.4914
vn 0.4161 0.2972 0.8594
vn 0.8260 -0.0671 -0.5596
vn -0.0708 -0.4586 -0.8858
vn -0.7007 -0.5483 -0.4566
vn 0.8442 0.3550 0.4017
vn -0.6807 0.7152 -0.1586
vn 0.7771 -0.6272 -0.0528
vn 0.4482 0.8428 0.2980
vn -0.8611 -0.1958 -0.4692
vn 0.5449 -0.7426 -0.3893
vn -0.4463 0.8918 0.0747
vn 0.4281 -0.3025 -0.8516
vn -0.2370 -0.3455 0.9080
vn -0.5350 0.8419 0.0701
vn 0.2196 -0.9451 0.2419
vn -0.5860 0.3593 0.7263
vn -0.0227 0.3675 -0.9298
vn 0.7334 0.6726 -0.0988
vn -0.3024 0.8911 -0.3384
vn -0.7047 -0.2968 -0.6444
vn 0.5593 -0.5399 -0.6290
vn -0.0797 -0.6642 0.7433
vn 0.2690 0.1712 -0.9478
vn 0.5404 -0.8354 0.0998
vn -0.8266 -0.5355 -0.1730
vn -0.3900 0.7036 0.5940
vn 0.6312 0.5966 0.4956
vn 0.9873 0.0061 0.1588
vn -0.9961 0.0118 0.0873
vn 0.3072 0.2122 -0.9277
vn -0.3307 0.0346 0.9431
vn -0.8430 0.1718 -0.5097
vn 0.9710 0.1019 -0.2163
vn 0.0478 0.2252 0.9731
vn -0.0548 0.1362 -0.9892
vn 0.1524 0.7640 0.6270
vn -0.0538 -0.9985 0.0014
vn 0.0391 0.0971 -0.9945
vn 0.1224 -0.5002 0.8572
vn 0.0031 -0.6764 -0.7365
vn 0.2609 0.9529 -0.1545
vn -0.2177 -0.0281 -0.9756
vn 0.3096 0.8003 -0.5135
vn -0.1623 0.7104 0.6848
vn -0.9895 -0.0923 0.1115
vn 0.2902 -0.7824 0.5510
vn -0.7479 0.6078 -0.2669
vn -0.5919 -0.7340 0.3331
vn 0.1390 0.3336 0.9324
vn 0.9342 0.0982 -0.3430
vn 0.2256 -0.4314 -0.8735
vn -0.4622 -0.6450 -0.6085
vn 0.6467 0.4818 0.5913
vn -0.7391 0.5909 -0.3233
vn 0.8660 -0.4799 0.1408
vn 0.2068 0.8966 0.3916
vn -0.6750 -0.3256 -0.6620
vn 0.7453 -0.6217 -0.2410
vn -0.6025 0.7970 -0.0415
vn 0.6660 -0.1921 -0.7208
vn -0.3818 -0.4143 0.8262
vn -0.6772 0.7327 -0.0671
vn 0.3200 -0.9006 0.2943
vn -0.7969 0.2250 0.5607
vn 0.1352 0.3915 -0.9102
vn -0.5332 0.8199 0.2083
vn -0.2237 0.5587 -0.7987
vn 0.8435 -0.1142 -0.5248
vn 0.6562 0.3971 0.6416
vn -0.1182 -0.8930 0.4343
vn 0.5265 0.8490 -0.0443
vn 0.3044 -0.2495 0.9193
vn 0.6738 -0.6159 -0.4083
vn -0.7755 -0.1952 -0.6004
vn -0.9002 0.3395 0.2729
vn -0.3765 0.4135 0.8290
vn 0.1853 -0.5675 -0.8022
vn 0.4763 0.8787 -0.0323
vn -0.6348 -0.7633 -0.1204
vn 0.4889 -0.0122 -0.8723
vn -0.1537 0.7014 0.6960
vn -0.8729 -0.4799 0.0880
vn 0.6625 0.6880 -0.2961
vn -0.9775 0.0989 -0.1861
vn 0.6320 -0.5854 0.5078
vn 0.6665 0.7185 -0.1989
vn -0.3566 -0.7703 0.5286
vn 0.9642 0.1016 0.2449
vn -0.5437 0.7667 -0.3413
vt 0.500000 0.125000
vt 0.625000 0.125000
vt 0.625000 0.250000
vt 0.500000 0.250000
vt 0.500000 0.375000
vt 0.625000 0.375000
vt 0.625000 0.500000
vt 0.500000 0.500000
vt 0.500000 0.625000
vt 0.625000 0.625000
vt 0.625000 0.750000
vt 0.500000 0.750000
vt 0.500000 0.875000
vt 0.625000 0.875000
vt 0.625000 1.000000
vt 0.500000 1.000000
vt 0.250000 0.625000
vt 0.375000 0.625000
vt 0.375000 0.750000
vt 0.250000 0.750000
vt 0.750000 0.625000
vt 0.875000 0.625000
vt 0.875000 0.750000
vt 0.750000 0.750000
vt 0.375000 0.875000
vt 0.375000 1.000000
vt 0.375000 0.375000
vt 0.375000 0.500000
vt 0.375000 0.125000
vt 0.375000 0.250000
vt 0.375000 0.000000
vt 0.500000 0.000000
vt 0.750000 0.500000
vt 0.875000 0.500000
vt 0.250000 0.500000
vt 0.625000 0.000000
vt 0.125000 0.500000
vt 0.125000 0.625000
vt 0.125000 0.750000
s 0
f 18/1/1 14/2/1 4/3/1 10/4/1
f 24/5/2 20/6/2 8/7/2 11/8/2
f 17/9/3 16/10/3 6/11/3 12/12/3
f 23/13/4 22/14/4 2/15/4 9/16/4
f 26/17/5 15/18/5 5/19/5 21/20/5
f 25/21/6 14/22/6 2/23/6 22/24/6
f 21/25/7 23/13/7 9/16/7 1/26/7
f 15/18/8 17/9/8 12/12/8 5/19/8
f 19/27/9 24/5/9 11/8/9 7/28/9
f 13/29/10 18/1/10 10/4/10 3/30/10
f 1/31/11 9/32/11 18/1/11 13/29/11
f 7/28/12 11/8/12 17/9/12 15/18/12
f 20/33/13 4/34/13 14/22/13 25/21/13
f 19/35/14 7/28/14 15/18/14 26/17/14
f 11/8/15 8/7/15 16/10/15 17/9/15
f 9/32/16 2/36/16 14/2/16 18/1/16
f 3/37/17 19/35/17 26/17/17 13/38/17
f 8/7/18 20/33/18 25/21/18 16/10/18
f 3/30/19 10/4/19 24/5/19 19/27/19
f 5/19/20 12/12/20 23/13/20 21/25/20
f 16/10/21 25/21/21 22/24/21 6/11/21
f 13/38/22 26/17/22 21/20/22 1/39/22
f 12/12/23 6/11/23 22/14/23 23/13/23
f 10/4/24 4/3/24 20/6/24 24/5/24
f 43/1/25 40/2/25 30/3/25 36/4/25
f 48/5/26 34/7/26 37/8/26
f 42/9/27 34/10/27 32/11/27 38/12/27
f 47/13/4 46/14/4 28/15/4 35/16/4
f 49/17/5 41/18/5 31/19/5 45/20/5
f 34/21/28 40/22/28 28/23/28 46/24/28
f 45/25/7 47/13/7 35/16/7 27/26/7
f 41/18/8 42/9/8 38/12/8 31/19/8
f 44/27/9 48/5/9 37/8/9 33/28/9
f 39/29/10 43/1/10 36/4/10 29/30/10
f 27/31/11 35/32/11 43/1/11 39/29/11
f 33/28/12 37/8/12 42/9/12 41/18/12
f 34/33/29 30/34/29 40/22/29
f 44/35/14 33/28/14 41/18/14 49/17/14
f 37/8/30 34/10/30 42/9/30
f 35/32/16 28/36/16 40/2/16 43/1/16
f 29/37/17 44/35/17 49/17/17 39/38/17
f 29/30/19 36/4/19 48/5/19 44/27/19
f 31/19/20 38/12/20 47/13/20 45/25/20
f 34/21/31 46/24/31 32/11/31
f 39/38/22 49/17/22 45/20/22 27/39/22
f 38/12/23 32/11/23 46/14/23 47/13/23
f 36/4/32 30/3/32 34/6/32 48/5/32
f 67/1/33 63/2/33 53/3/33 59/4/33
f 73/5/34 69/6/34 57/7/34 60/8/34
f 66/9/35 65/10/35 55/11/35 61/12/35
f 72/13/36 71/14/36 51/15/36 58/16/36
f 75/17/37 64/18/37 54/19/37 70/20/37
f 74/21/38 63/22/38 51/23/38 71/24/38
f 70/25/39 72/13/39 58/16/39 50/26/39
f 64/18/40 66/9/40 61/12/40 54/19/40
f 68/27/41 73/5/41 60/8/41 56/28/41
f 62/29/42 67/1/42 59/4/42 52/30/42
f 50/31/43 58/32/43 67/1/43 62/29/43
f 56/28/44 60/8/44 66/9/44 64/18/44
f 69/33/45 53/34/45 63/22/45 74/21/45
f 68/35/46 56/28/46 64/18/46 75/17/46
f 60/8/47 57/7/47 65/10/47 66/9/47
f 58/32/48 51/36/48 63/2/48 67/1/48
f 52/37/49 68/35/49 75/17/49 62/38/49
f 57/7/50 69/33/50 74/21/50 65/10/50
f 52/30/51 59/4/51 73/5/51 68/27/51
f 54/19/52 61/12/52 72/13/52 70/25/52
f 65/10/53 74/21/53 71/24/53 55/11/53
f 62/38/54 75/17/54 70/20/54 50/39/54
f 61/12/55 55/11/55 71/14/55 72/13/55
f 59/4/56 53/3/56 69/6/56 73/5/56
f 93/1/57 89/2/57 79/3/57 85/4/57
f 99/5/58 95/6/58 83/7/58 86/8/58
f 92/9/59 91/10/59 81/11/59 87/12/59
f 98/13/60 97/14/60 77/15/60 84/16/60
f 101/17/61 90/18/61 80/19/61 96/20/61
f 100/21/62 89/22/62 77/23/62 97/24/62
f 96/25/63 98/13/63 84/16/63 76/26/63
f 90/18/64 92/9/64 87/12/64 80/19/64
f 94/27/65 99/5/65 86/8/65 82/28/65
f 88/29/66 93/1/66 85/4/66 78/30/66
f 76/31/67 84/32/67 93/1/67 88/29/67
f 82/28/68 86/8/68 92/9/68 90/18/68
f 95/33/69 79/34/69 89/22/69 100/21/69
f 94/35/70 82/28/70 90/18/70 101/17/70
f 86/8/71 83/7/71 91/10/71 92/9/71
f 84/32/72 77/36/72 89/2/72 93/1/72
f 78/37/73 94/35/73 101/17/73 88/38/73
f 83/7/74 95/33/74 100/21/74 91/10/74
f 78/30/75 85/4/75 99/5/75 94/27/75
f 80/19/76 87/12/76 98/13/76 96/25/76
f 91/10/77 100/21/77 97/24/77 81/11/77
f 88/38/78 101/17/78 96/20/78 76/39/78
f 87/12/79 81/11/79 97/14/79 98/13/79
f 85/4/80 79/3/80 95/6/80 99/5/80
f 119/1/81 115/2/81 105/3/81 111/4/81
f 125/5/82 121/6/82 109/7/82 112/8/82
f 118/9/83 117/10/83 107/11/83 113/12/83
f 124/13/84 123/14/84 103/15/84 110/16/84
f 127/17/85 116/18/85 106/19/85 122/20/85
f 126/21/86 115/22/86 103/23/86 123/24/86
f 122/25/87 124/13/87 110/16/87 102/26/87
f 116/18/88 118/9/88 113/12/88 106/19/88
f 120/27/89 125/5/89 112/8/89 108/28/89
f 114/29/90 119/1/90 111/4/90 104/30/90
f 102/31/91 110/32/91 119/1/91 114/29/91
f 108/28/92 112/8/92 118/9/92 116/18/92
f 121/33/93 105/34/93 115/22/93 126/21/93
f 120/35/94 108/28/94 116/18/94 127/17/94
f 112/8/95 109/7/95 117/10/95 118/9/95
f 110/32/96 103/36/96 115/2/96 119/1/96
f 104/37/97 120/35/97 127/17/97 114/38/97
f 109/7/98 121/33/98 126/21/98 117/10/98
f 104/30/99 111/4/99 125/5/99 120/27/99
f 106/19/100 113/12/100 124/13/100 122/25/100
f 117/10/101 126/21/101 123/24/101 107/11/101
f 114/38/102 127/17/102 122/20/102 102/39/102
f 113/12/103 107/11/103 123/14/103 124/13/103
f 111/4/104 105/3/104 121/6/104 125/5/104
f 145/1/105 141/2/105 131/3/105 137/4/105
f 151/5/106 147/6/106 135/7/106 138/8/106
f 144/9/107 143/10/107 133/11/107 139/12/107
f 150/13/108 149/14/108 129/15/108 136/16/108
f 153/17/109 142/18/109 132/19/109 148/20/109
f 152/21/110 141/22/110 129/23/110 149/24/110
f 148/25/111 150/13/111 136/16/111 128/26/111
f 142/18/112 144/9/112 139/12/112 132/19/112
f 146/27/113 151/5/113 138/8/113 134/28/113
f 140/29/114 145/1/114 137/4/114 130/30/114
f 128/31/115 136/32/115 145/1/115 140/29/115
f 134/28/116 138/8/116 144/9/116 142/18/116
f 147/33/117 131/34/117 141/22/117 152/21/117
f 146/35/118 134/28/118 142/18/118 153/17/118
f 138/8/119 135/7/119 143/10/119 144/9/119
f 136/32/120 129/36/120 141/2/120 145/1/120
f 130/37/121 146/35/121 153/17/121 140/38/121
f 135/7/122 147/33/122 152/21/122 143/10/122
f 130/30/123 137/4/123 151/5/123 146/27/123
f 132/19/124 139/12/124 150/13/124 148/25/124
f 143/10/125 152/21/125 149/24/125 133/11/125
f 140/38/126 153/17/126 148/20/126 128/39/126
f 139/12/127 133/11/127 149/14/127 150/13/127
f 137/4/128 131/3/128 147/6/128 151/5/128
f 171/1/129 167/2/129 157/3/129 163/4/129
f 177/5/130 173/6/130 161/7/130 164/8/130
f 170/9/131 169/10/131 159/11/131 165/12/131
f 176/13/132 175/14/132 155/15/132 162/16/132
f 179/17/133 168/18/133 158/19/133 174/20/133
f 178/21/134 167/22/134 155/23/134 175/24/134
f 174/25/135 176/13/135 162/16/135 154/26/135
f 168/18/136 170/9/136 165/12/136 158/19/136
f 172/27/137 177/5/137 164/8/137 160/28/137
f 166/29/138 171/1/138 163/4/138 156/30/138
f 154/31/139 162/32/139 171/1/139 166/29/139
f 160/28/140 164/8/140 170/9/140 168/18/140
f 173/33/141 157/34/141 167/22/141 178/21/141
f 172/35/142 160/28/142 168/18/142 179/17/142
f 164/8/143 161/7/143 169/10/143 170/9/143
f 162/32/144 155/36/144 167/2/144 171/1/144
f 156/37/145 172/35/145 179/17/145 166/38/145
f 161/7/146 173/33/146 178/21/146 169/10/146
f 156/30/147 163/4/147 177/5/147 172/27/147
f 158/19/148 165/12/148 176/13/148 174/25/148
f 169/10/149 178/21/149 175/24/149 159/11/149
f 166/38/150 179/17/150 174/20/150 154/39/150
f 165/12/151 159/11/151 175/14/151 176/13/151
f 163/4/152 157/3/152 173/6/152 177/5/152
f 197/1/153 193/2/153 183/3/153 189/4/153
f 203/5/154 199/6/154 187/7/154 190/8/154
f 196/9/155 195/10/155 185/11/155 191/12/155
f 202/13/156 201/14/156 181/15/156 188/16/156
f 205/17/157 194/18/157 184/19/157 200/20/157
f 204/21/158 193/22/158 181/23/158 201/24/158
f 200/25/159 202/13/159 188/16/159 180/26/159
f 194/18/160 196/9/160 191/12/160 184/19/160
f 198/27/161 203/5/161 190/8/161 186/28/161
f 192/29/162 197/1/162 189/4/162 182/30/162
f 180/31/163 188/32/163 197/1/163 192/29/163
f 186/28/164 190/8/164 196/9/164 194/18/164
f 199/33/165 183/34/165 193/22/165 204/21/165
f 198/35/166 186/28/166 194/18/166 205/17/166
f 190/8/167 187/7/167 195/10/167 196/9/167
f 188/32/168 181/36/168 193/2/168 197/1/168
f 182/37/169 198/35/169 205/17/169 192/38/169
f 187/7/170 199/33/170 204/21/170 195/10/170
f 182/30/171 189/4/171 203/5/171 198/27/171
f 184/19/172 191/12/172 202/13/172 200/25/172
f 195/10/173 204/21/173 201/24/173 185/11/173
f 192/38/174 205/17/174 200/20/174 180/39/174
f 191/12/175 185/11/175 201/14/175 202/13/175
f 189/4/176 183/3/176 199/6/176 203/5/176
f 223/1/177 219/2/177 209/3/177 215/4/177
f 229/5/178 225/6/178 213/7/178 216/8/178
f 222/9/179 221/10/179 211/11/179 217/12/179
f 228/13/180 227/14/180 207/15/180 214/16/180
f 231/17/181 220/18/181 210/19/181 226/20/181
f 230/21/182 219/22/182 207/23/182 227/24/182
f 226/25/183 228/13/183 214/16/183 206/26/183
f 220/18/184 222/9/184 217/12/184 210/19/184
f 224/27/185 229/5/185 216/8/185 212/28/185
f 218/29/186 223/1/186 215/4/186 208/30/186
f 206/31/187 214/32/187 223/1/187 218/29/187
f 212/28/188 216/8/188 222/9/188 220/18/188
f 225/33/189 209/34/189 219/22/189 230/21/189
f 224/35/190 212/28/190 220/18/190 231/17/190
f 216/8/191 213/7/191 221/10/191 222/9/191
f 214/32/192 207/36/192 219/2/192 223/1/192
f 208/37/193 224/35/193 231/17/193 218/38/193
f 213/7/194 225/33/194 230/21/194 221/10/194
f 208/30/195 215/4/195 229/5/195 224/27/195
f 210/19/196 217/12/196 228/13/196 226/25/196
f 221/10/197 230/21/197 227/24/197 211/11/197
f 218/38/198 231/17/198 226/20/198 206/39/198
f 217/12/199 211/11/199 227/14/199 228/13/199
f 215/4/200 209/3/200 225/6/200 229/5/200
